<svg width="16" height="16" viewBox="0 0 16 16" fill="none" xmlns="http://www.w3.org/2000/svg">
<path d="M14.8973 13.7107C15.4161 14.2294 15.4161 15.0363 14.8973 15.555C14.638 15.8144 14.321 15.9297 13.9751 15.9297C13.6293 15.9297 13.3123 15.8144 13.053 15.555L7.77918 10.2813L2.5054 15.555C2.24604 15.8144 1.92903 15.9297 1.58321 15.9297C1.23739 15.9297 0.920388 15.8144 0.661022 15.555C0.14229 15.0363 0.14229 14.2294 0.661022 13.7107L5.9348 8.43689L0.661022 3.16312C0.14229 2.64439 0.14229 1.83747 0.661022 1.31874C1.17975 0.800004 1.98667 0.800004 2.5054 1.31874L7.77918 6.59251L13.053 1.31874C13.5717 0.800004 14.3786 0.800004 14.8973 1.31874C15.4161 1.83747 15.4161 2.64439 14.8973 3.16312L9.62356 8.43689L14.8973 13.7107Z" fill="black"/>
</svg>
